<svg xmlns="http://www.w3.org/2000/svg" width="45" height="45" viewBox="0 0 45 45">
    <g fill="none" fill-rule="evenodd">
        <rect width="45" height="45" fill="#367FC1" rx="8"/>
        <path fill="#FFF" fill-rule="nonzero" d="M38.692 12.753l-8-3.706c-.008-.004-.017-.005-.025-.008a.537.537 0 0 0-.068-.022c-.02-.005-.038-.01-.057-.012a.553.553 0 0 0-.132-.002c-.023.002-.045.007-.067.012-.021.006-.043.01-.064.018-.007.003-.015.003-.022.007L23 12.127 15.743 9.04c-.004-.002-.01-.002-.014-.005-.021-.008-.043-.013-.065-.018-.02-.005-.04-.011-.061-.014C15.58 9 15.558 9 15.536 9c-.02 0-.041-.001-.061.002-.023.002-.046.009-.068.014-.02.005-.04.008-.059.015l-.013.004-8 3.177a.53.53 0 0 0-.335.491v22.768a.53.53 0 0 0 .533.529.54.54 0 0 0 .199-.038l7.795-3.095 7.263 3.09c.008.003.016.002.023.005.061.023.124.038.188.038a.532.532 0 0 0 .187-.038c.007-.003.015-.002.023-.005l7.263-3.09 7.795 3.095a.536.536 0 0 0 .498-.053.53.53 0 0 0 .233-.438V13.233a.529.529 0 0 0-.308-.48zm-30.625.309L15 10.308v21.627l-6.933 2.753V13.062zm8-2.733l6.4 2.724v21.614l-6.4-2.723V10.33zm7.466 2.723l6.4-2.723v21.615l-6.4 2.723V13.052zm14.4 21.636L31 31.935V10.358l6.933 3.211v21.12z"/>
    </g>
</svg>
